# xmcd
#
# Track frame offsets: 
#        150
#        21497
#        44108
#        59386
#        81845
#        96394
#        122880
#        140048
#        164191
#
# Disc length: 2499 seconds
#
# Revision: 0
# Processed by: cddbd v1.5.2PL0 Copyright (c) Steve Scherf et al.
# Submitted via: ExactAudioCopy v0.99pb5
#
DISCID=8f09c109
DTITLE=The Griff Hamlin Band - The Griff Hamlin Band
DYEAR=2002
DGENRE=Blues
TTITLE0=Don't Lie
TTITLE1=Louisiana Holiday
TTITLE2=Coming Home
TTITLE3=Running On
TTITLE4=Morality
TTITLE5=G String Shuffle
TTITLE6=Got To End
TTITLE7=When Evil Comes
TTITLE8=Where Would I Begin
EXTD=
EXTT0=
EXTT1=
EXTT2=
EXTT3=
EXTT4=
EXTT5=
EXTT6=
EXTT7=
EXTT8=
PLAYORDER=
